<mxfile host="app.diagrams.net" agent="Mozilla/5.0 (Windows NT 10.0; Win64; x64) AppleWebKit/537.36 (KHTML, like Gecko) Chrome/132.0.0.0 Safari/537.36" version="26.0.11">
  <diagram name="第 1 页" id="lqMgmNe9YlhDIJbrbuKV">
    <mxGraphModel dx="1221" dy="725" grid="1" gridSize="10" guides="1" tooltips="1" connect="1" arrows="1" fold="1" page="1" pageScale="1" pageWidth="827" pageHeight="1169" math="0" shadow="0">
      <root>
        <mxCell id="0" />
        <mxCell id="1" parent="0" />
        <mxCell id="EbEk8VyUott3coYghCiL-1" value="应用程序：微信，谷歌浏览器，英雄联盟" style="rounded=0;whiteSpace=wrap;html=1;fontSize=16;" vertex="1" parent="1">
          <mxGeometry x="179" y="140" width="470" height="80" as="geometry" />
        </mxCell>
        <mxCell id="EbEk8VyUott3coYghCiL-2" value="操作系统：进程管理，内存管理，IO管理" style="rounded=0;whiteSpace=wrap;html=1;fontSize=16;" vertex="1" parent="1">
          <mxGeometry x="180" y="340" width="470" height="80" as="geometry" />
        </mxCell>
        <mxCell id="EbEk8VyUott3coYghCiL-3" value="计算机硬件：磁盘，网卡，内存条" style="rounded=0;whiteSpace=wrap;html=1;fontSize=16;" vertex="1" parent="1">
          <mxGeometry x="180" y="520" width="470" height="80" as="geometry" />
        </mxCell>
        <mxCell id="EbEk8VyUott3coYghCiL-4" value="" style="endArrow=classic;html=1;rounded=0;entryX=0.706;entryY=-0.004;entryDx=0;entryDy=0;entryPerimeter=0;exitX=0.707;exitY=0.979;exitDx=0;exitDy=0;exitPerimeter=0;" edge="1" parent="1" source="EbEk8VyUott3coYghCiL-1" target="EbEk8VyUott3coYghCiL-2">
          <mxGeometry width="50" height="50" relative="1" as="geometry">
            <mxPoint x="500" y="280" as="sourcePoint" />
            <mxPoint x="550" y="230" as="targetPoint" />
          </mxGeometry>
        </mxCell>
        <mxCell id="EbEk8VyUott3coYghCiL-5" value="1" style="text;html=1;align=center;verticalAlign=middle;resizable=0;points=[];autosize=1;strokeColor=none;fillColor=none;" vertex="1" parent="1">
          <mxGeometry x="515" y="268" width="30" height="30" as="geometry" />
        </mxCell>
        <mxCell id="EbEk8VyUott3coYghCiL-6" value="" style="endArrow=classic;html=1;rounded=0;exitX=0.704;exitY=1.021;exitDx=0;exitDy=0;exitPerimeter=0;" edge="1" parent="1" source="EbEk8VyUott3coYghCiL-2">
          <mxGeometry width="50" height="50" relative="1" as="geometry">
            <mxPoint x="520" y="422" as="sourcePoint" />
            <mxPoint x="511" y="520" as="targetPoint" />
          </mxGeometry>
        </mxCell>
        <mxCell id="EbEk8VyUott3coYghCiL-7" value="2" style="text;html=1;align=center;verticalAlign=middle;resizable=0;points=[];autosize=1;strokeColor=none;fillColor=none;" vertex="1" parent="1">
          <mxGeometry x="515" y="448" width="30" height="30" as="geometry" />
        </mxCell>
        <mxCell id="EbEk8VyUott3coYghCiL-8" value="" style="endArrow=classic;html=1;rounded=0;entryX=0.233;entryY=1.046;entryDx=0;entryDy=0;entryPerimeter=0;" edge="1" parent="1" target="EbEk8VyUott3coYghCiL-2">
          <mxGeometry width="50" height="50" relative="1" as="geometry">
            <mxPoint x="290" y="520" as="sourcePoint" />
            <mxPoint x="340" y="470" as="targetPoint" />
          </mxGeometry>
        </mxCell>
        <mxCell id="EbEk8VyUott3coYghCiL-9" value="3" style="text;html=1;align=center;verticalAlign=middle;resizable=0;points=[];autosize=1;strokeColor=none;fillColor=none;" vertex="1" parent="1">
          <mxGeometry x="295" y="458" width="30" height="30" as="geometry" />
        </mxCell>
        <mxCell id="EbEk8VyUott3coYghCiL-10" value="" style="endArrow=classic;html=1;rounded=0;entryX=0.221;entryY=1.013;entryDx=0;entryDy=0;entryPerimeter=0;" edge="1" parent="1" target="EbEk8VyUott3coYghCiL-1">
          <mxGeometry width="50" height="50" relative="1" as="geometry">
            <mxPoint x="283" y="340" as="sourcePoint" />
            <mxPoint x="280" y="230" as="targetPoint" />
          </mxGeometry>
        </mxCell>
        <mxCell id="EbEk8VyUott3coYghCiL-11" value="4" style="text;html=1;align=center;verticalAlign=middle;resizable=0;points=[];autosize=1;strokeColor=none;fillColor=none;" vertex="1" parent="1">
          <mxGeometry x="290" y="268" width="30" height="30" as="geometry" />
        </mxCell>
      </root>
    </mxGraphModel>
  </diagram>
</mxfile>
